# xmcd
#
# Track frame offsets: 
#        151
#        18396
#        35847
#        55320
#        74264
#        90973
#        109042
#        125278
#        143259
#        159808
#
# Disc length: 2420 seconds
#
# Revision: 1
# Processed by: cddbd v1.5.2PL0 Copyright (c) Steve Scherf et al.
# Submitted via: ExactAudioCopy v0.99pb5
#
DISCID=7409720a
DTITLE=Adrian Copilul Minune and Costi Ionita - Autoconcurenta
DYEAR=2000
DGENRE=Manele
TTITLE0=Printesa mea
TTITLE1=E noapte si e tarziu
TTITLE2=Muncim pentru bani
TTITLE3=Amandoua femeile
TTITLE4=Baietii care au bani
TTITLE5=Hai sa ne luam
TTITLE6=Numele tau e de floare
TTITLE7=Am frumusete de fata
TTITLE8=Soarele imi bate-n geam
TTITLE9=De ce oare am suferit
EXTD=
EXTT0=
EXTT1=
EXTT2=
EXTT3=
EXTT4=
EXTT5=
EXTT6=
EXTT7=
EXTT8=
EXTT9=
PLAYORDER=
